<?xml version="1.0" standalone="no"?>
<!DOCTYPE svg PUBLIC "-//W3C//DTD SVG 20010904//EN"
 "http://www.w3.org/TR/2001/REC-SVG-20010904/DTD/svg10.dtd">
<svg version="1.0" xmlns="http://www.w3.org/2000/svg"
 width="512.000000pt" height="512.000000pt" viewBox="0 0 512.000000 512.000000"
 preserveAspectRatio="xMidYMid meet">

<g transform="translate(0.000000,512.000000) scale(0.100000,-0.100000)"
fill="#adbac7" stroke="none">
<path d="M2380 5114 c-19 -2 -78 -9 -130 -14 -330 -36 -695 -160 -990 -336
-375 -224 -680 -529 -904 -904 -175 -292 -291 -632 -338 -990 -16 -123 -16
-497 0 -620 82 -623 356 -1150 820 -1581 256 -239 575 -425 922 -539 274 -91
491 -124 800 -124 228 0 329 9 530 50 689 141 1304 583 1674 1204 175 292 291
632 338 990 16 123 16 497 0 620 -47 358 -163 698 -338 990 -224 375 -529 680
-904 904 -289 173 -634 291 -980 336 -88 12 -438 21 -500 14z m381 -404 c330
-33 694 -156 943 -320 445 -291 750 -681 905 -1156 119 -364 141 -711 70
-1089 -45 -235 -167 -544 -289 -729 -291 -445 -681 -750 -1156 -905 -452 -148
-896 -148 -1348 0 -648 212 -1163 727 -1375 1375 -148 452 -148 896 0 1348
212 648 727 1163 1375 1375 293 96 586 129 875 101z"/>
<path d="M2395 4039 c-291 -31 -581 -158 -810 -356 -357 -309 -549 -782 -507
-1247 19 -200 59 -348 142 -521 324 -673 1093 -1000 1805 -768 107 35 209 82
308 142 81 49 224 159 261 200 l20 22 -134 134 c-74 74 -142 135 -151 135 -8
0 -26 -12 -40 -26 -44 -47 -156 -124 -246 -169 -536 -266 -1191 -45 -1457 491
-267 537 -47 1191 490 1458 304 151 664 151 967 1 90 -45 202 -122 246 -169
14 -14 32 -26 40 -26 9 0 77 61 151 135 l134 134 -20 22 c-10 12 -55 50 -99
86 -312 251 -699 364 -1100 322z"/>
</g>
</svg>
