<?xml version="1.0" standalone="no"?>
<!DOCTYPE svg PUBLIC "-//W3C//DTD SVG 20010904//EN"
 "http://www.w3.org/TR/2001/REC-SVG-20010904/DTD/svg10.dtd">
<svg version="1.0" xmlns="http://www.w3.org/2000/svg"
 width="150px" height="150px" viewBox="0 0 512.000000 512.000000"
 preserveAspectRatio="xMidYMid meet">
<g transform="translate(0.000000,512.000000) scale(0.100000,-0.100000)"
fill="#adbac7" stroke="none">
<path d="M4645 4845 c-17 -9 -232 -217 -479 -464 l-448 -448 -132 62 c-736
352 -1425 333 -2175 -61 -306 -161 -597 -373 -913 -667 -137 -128 -358 -364
-415 -445 -95 -133 -108 -319 -32 -470 33 -67 174 -229 359 -412 198 -196 388
-356 606 -510 l116 -83 -430 -431 c-376 -377 -431 -436 -437 -469 -22 -118 64
-204 183 -182 32 6 94 63 497 465 l460 458 70 -35 c357 -183 723 -276 1085
-276 437 1 856 129 1315 404 342 204 705 505 1000 829 216 236 239 280 239
450 0 172 -25 218 -250 462 -222 240 -495 481 -747 660 l-129 91 430 431 c464
464 454 453 438 540 -17 92 -125 143 -211 101z m-1785 -926 c69 -12 177 -37
240 -56 116 -35 344 -124 374 -146 14 -10 -12 -40 -187 -215 l-203 -203 -79
46 c-138 79 -279 115 -446 115 -252 0 -453 -84 -634 -265 -181 -181 -265 -382
-265 -634 0 -167 36 -308 115 -446 l46 -79 -235 -235 -235 -235 -116 78 c-222
150 -462 354 -685 582 -233 239 -262 282 -246 369 8 43 69 118 241 294 692
711 1424 1082 2080 1055 61 -3 166 -14 235 -25z m1036 -450 c228 -156 470
-363 694 -595 158 -164 218 -237 226 -279 16 -87 -13 -130 -246 -369 -241
-247 -458 -429 -715 -601 -654 -437 -1255 -552 -1866 -359 -107 34 -335 126
-351 142 -4 4 84 99 195 210 l203 203 79 -46 c266 -151 608 -155 874 -9 153
84 281 212 365 365 146 266 142 608 -9 874 l-46 79 233 233 c128 128 235 233
239 233 3 0 59 -37 125 -81z m-1192 -324 c65 -17 156 -54 156 -64 0 -3 -185
-191 -410 -416 -327 -327 -412 -407 -420 -395 -17 25 -50 120 -62 173 -16 76
-4 239 23 316 63 182 231 336 419 385 73 19 221 20 294 1z m405 -334 c52 -122
66 -277 36 -396 -49 -192 -202 -360 -386 -424 -77 -27 -240 -39 -316 -23 -53
12 -148 45 -173 62 -12 8 68 93 395 420 225 225 413 410 416 410 4 0 16 -22
28 -49z"/>
</g>
</svg>
