<?xml version="1.0" standalone="no"?>
<!DOCTYPE svg PUBLIC "-//W3C//DTD SVG 20010904//EN"
 "http://www.w3.org/TR/2001/REC-SVG-20010904/DTD/svg10.dtd">
<svg version="1.0" xmlns="http://www.w3.org/2000/svg"
 width="512.000000pt" height="512.000000pt" viewBox="0 0 512.000000 512.000000"
 preserveAspectRatio="xMidYMid meet">

<g transform="translate(0.000000,512.000000) scale(0.100000,-0.100000)"
fill="#adbac7" stroke="none">
<path d="M2425 4154 c-385 -29 -692 -112 -1025 -278 -324 -161 -593 -359 -881
-646 -253 -253 -519 -596 -519 -671 0 -31 102 -190 206 -321 507 -638 1142
-1064 1809 -1213 193 -43 323 -57 535 -58 263 -1 456 25 700 93 623 175 1246
625 1707 1235 97 129 163 235 163 264 0 31 -24 73 -93 161 -114 145 -180 219
-208 230 -62 26 -133 -24 -133 -95 0 -25 10 -46 40 -82 23 -26 71 -86 107
-131 l67 -84 -30 -43 c-270 -393 -703 -794 -1094 -1015 l-59 -33 58 68 c174
205 292 454 347 729 29 147 32 434 5 571 -39 198 -61 235 -139 235 -34 0 -46
-7 -97 -59 -46 -46 -71 -63 -112 -75 -66 -20 -82 -20 -148 0 -105 31 -181 146
-168 255 15 121 119 219 233 219 70 0 127 74 104 134 -5 15 -31 49 -56 76 -26
28 -43 50 -39 50 14 0 202 -108 316 -182 123 -79 154 -85 200 -39 23 23 29 38
29 71 0 55 -21 75 -190 180 -385 239 -772 383 -1170 434 -120 15 -378 26 -465
20z m404 -228 c179 -37 363 -115 508 -215 110 -76 183 -140 165 -147 -35 -15
-118 -88 -152 -133 -199 -265 -42 -644 290 -703 74 -13 178 1 243 32 51 25 53
21 63 -89 33 -402 -115 -802 -405 -1092 -201 -200 -436 -327 -716 -385 -125
-26 -404 -27 -524 -1 -288 62 -519 185 -717 382 -200 199 -323 425 -385 705
-31 139 -34 408 -5 540 63 293 183 518 386 721 211 211 472 345 770 394 106
18 373 12 479 -9z m-1484 -342 c-173 -204 -301 -476 -351 -749 -26 -139 -26
-411 0 -550 51 -274 178 -544 353 -751 l58 -69 -60 34 c-382 214 -793 594
-1082 998 l-45 63 47 66 c277 388 645 734 1021 960 59 35 109 64 111 64 2 0
-21 -30 -52 -66z"/>
<path d="M2472 3210 c-246 -38 -455 -210 -531 -438 -133 -396 127 -809 544
-862 296 -37 593 148 692 430 87 252 19 522 -178 704 -138 128 -348 194 -527
166z m236 -221 c315 -108 409 -514 173 -750 -220 -219 -596 -156 -730 123
-173 363 177 757 557 627z"/>
<path d="M4458 3301 c-27 -24 -33 -36 -33 -71 0 -100 135 -136 181 -49 26 52
10 110 -37 135 -42 21 -75 17 -111 -15z"/>
</g>
</svg>
